<svg xmlns="http://www.w3.org/2000/svg" width="1200" height="356"><path fill="#EFF0F2" d="m79.79 37.902 2.85.01 2.985.026 3.008.013Q92.316 37.97 96 38c3.918 6.66 7.048 13.492 10 20.625l1.396 3.34a5240 5240 0 0 1 2.99 7.169 2319 2319 0 0 0 5.22 12.39q1.35 3.192 2.697 6.385.883 2.088 1.769 4.175 1.24 2.925 2.471 5.853l1.438 3.403C125 104 125 104 125 106l3-1c1.469-2.629 1.469-2.629 2.742-5.914l.754-1.825a707 707 0 0 0 2.379-5.886l1.635-4.008c3.154-7.776 6.118-15.574 8.525-23.617 1.011-2.882 2.388-5.14 3.965-7.75 1.128-2.53 2.128-5.104 3.125-7.687 2.797-7.158 2.797-7.158 3.875-9.313 5.098-1.027 10.135-1.183 15.313-1.187l2.166-.038c1.842-.005 3.683.102 5.521.225l2 2c.249 1.927.249 1.927.247 4.327l.013 2.753-.017 3.03.006 3.183c.003 3.485-.007 6.971-.019 10.457v7.241a6501 6501 0 0 1-.024 15.193q-.023 9.755-.02 19.511-.001 7.48-.013 14.957l-.006 7.197q-.004 5.02-.022 10.042l.002 3.029-.013 2.753-.005 2.4C180 148 180 148 179 150c-2.71.925-5.226 1.128-8.074 1.133l-2.272.004-2.341-.012-2.377.012A173 173 0 0 1 158 151l-1-1a164 164 0 0 1-.205-6.906l-.03-2.188q-.047-3.596-.081-7.191l-.063-4.973q-.083-6.557-.153-13.114-.077-6.687-.161-13.372Q156.145 89.128 156 76h-3l-.586 1.793c-2.215 6.722-2.215 6.722-3.414 9.644-.872 2.235-1.497 4.379-2.125 6.688-2.222 7.484-5.458 14.558-8.531 21.72a1706 1706 0 0 0-4.688 11.14c-.29.694-.58 1.39-.88 2.105q-1.764 4.221-3.525 8.443-1.245 2.982-2.493 5.963l-1.465 3.506A107 107 0 0 1 122 154l-2-1v-3l-2-1c-1.878-2.63-2.937-4.517-3.36-7.742-.758-3.857-2.39-6.834-4.328-10.196-3.508-6.315-6.279-12.677-8.87-19.414C99.203 105.986 96.584 100.51 94 95c-1.456-3.248-2.816-6.458-3.96-9.828L89 82.125l-.937-2.867L87 77l-3-1 .49 1.584c.646 3.063.645 5.933.655 9.065l.01 1.997q.013 3.257.013 6.514l.01 4.535q.009 4.748.007 9.495c0 4.057.014 8.115.031 12.173q.015 4.68.013 9.36 0 2.244.013 4.489c.01 2.09.007 4.179 0 6.269l.005 3.604C85 148 85 148 83 151c-3.34.41-6.643.13-10 0-1.248-10.992-1.146-21.971-1.133-33.016l-.003-6.079q-.002-6.34.006-12.677.006-8.104-.004-16.207a8427 8427 0 0 1 0-12.528q0-2.988-.002-5.976-.003-4.178.007-8.354l-.007-2.462c.019-4.982.268-9.788 1.136-14.701 2.453-1.226 4.05-1.114 6.79-1.098M626 31q3.688-.04 7.375-.062l2.117-.026c5.281-.025 5.281-.025 7.508 1.088q.034 20.093.052 40.185.007 9.33.023 18.658.016 8.996.02 17.992.003 3.44.01 6.878.01 4.802.009 9.605l.01 2.897-.004 2.634.003 2.296C643 135 643 135 642 137h2l1 2c2.24.603 4.486.956 6.773 1.34 2.227.66 2.227.66 4.016 2.226L657 144l1-2h2l-.187-3.312c-.011-6.037 1.454-12.419 4.289-17.766 1.18-2.172 1.18-2.172.898-5.922h2l-1-3h2l.297-2.062c3.638-23.585 3.638-23.585 8.203-30.313 2.313-2.428 3.476-3.433 6.5-4.625 3.708-.482 7.289-.446 11 0 3.5 1.813 3.5 1.813 6 4l1.578 1.332c1.825 2.141 2.113 3.788 2.672 6.543 1.308 5.655 3.004 11.076 4.875 16.563a1252 1252 0 0 1 8.198 25.055c.604 1.913 1.218 3.823 1.832 5.733l1.122 3.583 1.008 3.181c.743 3.128.919 5.806.715 9.01l-1 1c-2.269.1-4.541.13-6.812.125l-3.77.008c-5.125-.2-5.125-.2-7.418-1.133-.973-1.934-.973-1.934-1.633-4.437l-.754-2.711-.738-2.852q-.744-2.784-1.508-5.562c-.215-.827-.43-1.653-.653-2.504L697 130c-2.505-1.252-4.209-1.114-7.008-1.098l-2.988.01-3.129.025-3.152.014q-3.862.018-7.723.049l-.58 1.738L666 150c-2.761.73-4.76 1.042-7.594.55-3.077-.497-5.71-.577-8.812-.507l-3.004.064q-3.09.08-6.18.196c-7.32.128-7.32.128-10.43-1.101-1.636-1.026-1.636-1.026-3.98-3.202-3.743-11.228-2.164-25.181-2.168-36.895l-.01-6.007q-.009-6.26-.007-12.519c0-5.333-.014-10.667-.031-16q-.015-6.189-.013-12.378 0-2.95-.013-5.9c-.01-2.748-.007-5.497 0-8.246-.007-.801-.012-1.603-.018-2.43.029-5.183.83-9.638 2.26-14.625m57 60c-3.895 8.18-6.355 17.103-8 26 2.336 1.397 3.955 1.996 6.691 2.23l2.871-.043 2.88-.019c2.678-.067 2.678-.067 5.558-1.168-.605-6.064-1.863-11.655-3.562-17.5l-.71-2.492Q687.873 95.002 687 92zM533 38q9.876-.075 19.751-.11 3.358-.016 6.716-.04c3.222-.025 6.444-.037 9.666-.045l3.021-.032c5.035 0 9.13.241 13.846 2.227l2.527.895c6.102 2.324 11.482 4.78 15.907 9.699 3.104 4.053 5.575 8.364 6.566 13.406.577 7.583 1.094 15.82-1.836 22.98-3.365 5.839-7.816 10.502-13.601 13.957-8.439 4.608-17.778 4.323-27.125 4.188l-3.635-.027Q560.4 105.063 556 105l.035 2.734c.082 9.763-.145 19.508-.472 29.266l-.12 3.815-.127 3.56-.11 3.21L555 150l-1 1a76 76 0 0 1-4.691.098l-2.862-.01-3.01-.025-3.021-.014q-3.708-.018-7.416-.049c-1.248-3.744-1.143-7.225-1.133-11.125l-.004-2.53c-.002-2.782.005-5.563.012-8.345l.003-2.885c.026-24.377.56-48.746 1.122-73.115h-2q-.079-2.625-.125-5.25l-.07-2.953c.2-2.858.856-4.322 2.195-6.797m24 10-2 2c-.305 1.924-.305 1.924-.259 4.143l-.019 2.588.012 2.8-.005 2.87q-.003 3.006.01 6.012c.011 3.075 0 6.149-.012 9.224q0 2.916.007 5.832l-.012 2.8.02 2.588c0 .754.002 1.507.004 2.284L555 93l2 2c7.095.683 14.312.537 21-2 3.262-2.2 6.061-4.486 8.148-7.852 2.51-6.333 2.117-13.813 1.29-20.46-.76-3.893-1.703-6.645-4.188-9.75-3.213-3.221-6.676-5.124-11.016-6.497-2.974-.587-5.828-.611-8.859-.629l-3.477-.042z"/><path fill="#F0F1F3" d="M454 76q8.325-.112 16.65-.165 2.829-.022 5.657-.061a945 945 0 0 1 8.162-.067c.833-.015 1.667-.03 2.526-.047 6.604-.002 11.588 1.475 17.43 4.664 3.332 2.407 5.925 4.565 7.637 8.364 1.51 5.103 1.097 10.17-.062 15.312-2.283 4.403-5.315 7.693-9 11l-3 1c2.354 5.756 5.135 11.204 8.063 16.688l2.66 5.011 1.18 2.214L513 142l1.135 2.097c1.088 2.393 1.01 4.305.865 6.903q-4.125.08-8.25.125l-2.355.05c-3.04.027-5.753.002-8.692-.808-3.692-2.964-5.649-6.997-7.371-11.312q-.77-2.085-1.52-4.18l-.787-2.129c-1.922-5.257-1.922-5.257-2.48-7.913L483 123l-2-1c-1.727-3.453-2.22-6.158-2-10l1.793-.41c3.358-.915 6.252-1.766 8.918-4.067 1.89-2.392 3.055-4.538 3.762-7.511.166-2.192.058-3.876-.473-6.012-1.343-2.65-2.866-4.926-5-7-3.1-1.034-5.314-1.134-8.562-1.125l-2.942-.008C474 85.833 474 85.833 472 87l1 63c-3.174 1.587-6.582 1.143-10.062 1.125l-2.26.012A159 159 0 0 1 455 151l-1-1a200 200 0 0 1-.562-7.562l-.131-2.155q-.159-2.64-.307-5.283h2l-.108-3.365q-.194-6.166-.374-12.333a2505 2505 0 0 0-.166-5.343q-.122-3.835-.23-7.67l-.083-2.421c-.153-5.64-.153-5.64.961-7.868h-2q-.04-4.156-.062-8.312l-.026-2.381-.01-2.295-.016-2.11C453 79 453 79 454 76"/><path fill="#EFF0F2" d="M753.887 75.625c2.601 1.693 3.653 3.726 5.075 6.436 1.035 1.933 2.174 3.726 3.397 5.544l1.192 1.791a498 498 0 0 0 2.445 3.618c1.07 1.619 2.043 3.3 3.004 4.986v4h2l6 11h1l.076-2.029c.117-3.094.24-6.189.361-9.284l.12-3.189c.126-3.167.282-6.332.443-9.498l.118-3.177.167-2.991.125-2.676L780 78c1.908-1.322 1.908-1.322 4-2 2.188.313 2.188.313 4 1l1 1c.1 2.131.128 4.266.13 6.4l.005 2.025q.004 3.33-.002 6.66 0 2.31.003 4.616.001 4.845-.006 9.69-.006 6.212.004 12.425.005 4.769 0 9.538 0 2.29.002 4.58.003 3.204-.007 6.407l-.002 3.685C789 147 789 147 788 150c-3 2-3 2-5.457 2.352L780 152c-2.84-2.242-4.938-5.039-7-8-1.125-3-1.125-3-2-6-1.118-1.993-2.342-3.892-3.586-5.809-1.487-2.303-2.891-4.645-4.289-7.004A403 403 0 0 0 756.5 114.5c-7.995-12.49-7.995-12.49-10.5-17.5l-2 1c-1.232 2.465-1.099 4.03-1.062 6.785l.025 3.014.037 3.263c.084 13.002-.372 25.953-1 38.938-2.312.563-2.312.563-5 1l-3-1v-4l-2-1c-.125-5.75-.125-5.75 1-8a79 79 0 0 0 .05-4.766l-.04-3.005-.053-3.264-.064-6.83c-.037-3.593-.08-7.184-.14-10.776a1208 1208 0 0 1-.108-10.394l-.073-3.22c-.02-5.992.702-10.57 3.273-16.002C737 77 737 77 740 75c5.146-1.338 8.909-.79 13.887.625M547 219c1.727-.136 3.457-.232 5.188-.312l2.917-.176c2.895.488 2.895.488 5.48 2.394 3.145 4.03 4.94 8.192 6.852 12.906l1.166 2.796c3.332 8.056 6.44 16.192 9.397 24.392l3-1a74 74 0 0 0 2.5-7.125c1.567-5.114 3.316-9.987 5.5-14.875h2l.332-1.652c.876-4.166 1.863-8.275 3.106-12.348l.683-2.25L596 220c3.116-1.039 5.36-1.134 8.625-1.125l2.977-.008L610 219l1 1c.094 2.086.117 4.176.114 6.264v1.98c0 2.17-.009 4.34-.016 6.51l-.005 4.502q-.006 5.935-.024 11.871-.014 6.053-.02 12.105-.016 11.884-.049 23.768c-1.436.196-2.874.381-4.312.563l-2.426.316C602 288 602 288 599 287q-.219-6.237-.427-12.476-.072-2.11-.146-4.223c-.33-9.44-.494-18.855-.427-28.301h-3v3h-2l-.387 2.184c-.6 2.759-1.427 5.24-2.426 7.879a308 308 0 0 0-4.187 12c-1.54 4.679-3.267 9.237-5.168 13.78-.895 2.13-.895 2.13-1.258 4.376L579 287l-3 1c-7.453-11.768-14.775-26.154-17-40h-2l-2-6-2 1-1 43-4 1-2-1q-.035-11.332-.052-22.663a5974 5974 0 0 0-.023-10.526c-.013-4.041-.018-8.082-.023-12.124l-.015-3.785c0-6.066.171-11.906 1.113-17.902M222.305 74.7c3.833-.018 6.92-.01 10.507 1.425 3.548 3.04 6.345 5.914 8.197 10.223.987 2.866 1.878 5.747 2.741 8.652l1.004 3.262c1.097 3.575 2.17 7.156 3.246 10.738q.911 2.988 1.825 5.974 1.532 5.01 3.05 10.026l1.155 3.809c1.903 6.354 3.786 12.66 4.97 19.191l-1 2c-2.984.484-2.984.484-6.75.75l-3.734.297C244.067 151 241.99 150.68 239 149c-.625-2.5-.625-2.5-1-6a147 147 0 0 0-1.437-5.125l-.747-2.508c-.872-2.698-.872-2.698-2.816-6.367h-24v5c-1.023 2.973-1.023 2.973-2.375 6.063l-1.336 3.097L204 146l-.977 2.32L202 150c-3 .813-3 .813-6 1l-2-1q.212-2.437.438-4.875c.08-.905.162-1.81.246-2.742C195 140 195 140 196 138h2l-1-4h2l-1-3h2l-1-5h2l.29-3.723c.679-6.095 2.375-11.84 4.085-17.714l.922-3.237q.903-3.16 1.825-6.314.861-2.954 1.686-5.919l.762-2.69.657-2.364C212 82 212 82 214.5 79c4.903-3.922 4.903-3.922 7.805-4.3M220 91c-1.935 2.902-2.588 5.124-3.355 8.473-1.094 4.289-2.544 8.471-3.938 12.672L212 115l1 3c2.082.223 4.166.428 6.25.625l3.516.352c3.17.228 3.17.228 5.656-.954L230 117c-.661-5.664-1.988-10.963-3.562-16.437l-.71-2.506q-.86-3.03-1.728-6.057zM408.3 75.77h2.658q2.764.006 5.53.024c2.833.019 5.665.02 8.498.02q2.69.007 5.377.018l2.579.003c2.02.017 4.04.086 6.058.165l1 1c.125 3.5.125 3.5 0 7l-1 1c-2.217.159-4.439.251-6.66.316l-2.014.063q-3.195.097-6.389.183l-4.322.131q-5.307.161-10.615.307v2h-2l.492 1.71c.528 2.378.641 4.483.633 6.915l.008 2.352C408 101 408 101 407 103h2v2c.615-.01 1.23-.02 1.864-.032 2.795-.041 5.59-.067 8.386-.093.968-.017 1.936-.034 2.934-.05l2.832-.02 2.602-.032c2.561.244 4.177.937 6.382 2.227a236 236 0 0 1-1 7l-1 1c-1.62.215-3.247.37-4.875.5l-2.984.25-6.282.5-2.984.25-2.758.219L410 117l-1 1a83 83 0 0 0-.098 4.91l.01 2.998.026 3.154.013 3.167q.018 3.885.049 7.771l2.052-.013c6.348-.023 12.67.083 19.01.388.84.03 1.68.062 2.545.094 2.136.103 4.266.309 6.393.531l2 2c-.312 3.063-.312 3.063-1 6l-1 1c-2.885.198-5.748.333-8.637.422l-2.643.084q-2.778.085-5.556.161c-2.823.082-5.644.186-8.467.29q-2.698.078-5.396.152l-2.548.104c-3.927.084-6.54-.133-10.272-1.532L393 148l-1-3h-2a5186 5186 0 0 1-.155-23.992c-.016-3.714-.037-7.428-.071-11.142-.033-3.585-.05-7.17-.059-10.756a524 524 0 0 0-.032-4.1 513 513 0 0 1-.024-5.751l-.02-3.304c.413-3.382 1.328-5.243 3.361-7.955 4.933-2.457 9.914-2.277 15.3-2.23"/><path fill="#F0F1F3" d="M290 74c7.728-.318 13.94-.323 21 3v7l-3-.035C297.928 83.7 297.928 83.7 288 85l-2.125 1.688L285 89c.618 3.63 1.723 5.664 4.063 8.5 4.462 3.798 9.333 6.887 14.308 9.969 5.968 3.784 10.506 7.767 14.004 13.969.871 3.572 1.075 6.929.625 10.562-1.596 4.708-3.43 8.522-7 12-7.142 4.158-12.863 6.138-21.098 6.186l-3.152.001-3.105.038c-5.62.01-10.342-.33-15.645-2.225l1-7c1.785-.559 1.785-.559 4-1 1.834.5 3.667 1.002 5.496 1.52 5.097.978 10.336.622 15.504.48v-2l2.563-2.187L299 135c.408-3.562.408-3.562-1-7-2.002-2.053-3.664-3.416-6-5l-2.41-1.723c-3.52-2.5-7.045-4.94-10.715-7.215C274.489 110.917 269.45 106.9 267 102c-.51-3.412-.498-6.586 0-10 1.85-4.427 4.497-7.707 8.121-10.824 4.774-3.417 9.123-5.13 14.879-6.176z"/><path fill="#EFF0F2" d="M327 76a67 67 0 0 1 4.412-.13l2.842-.009 3.09.006 3.15-.003q3.303 0 6.607.006 5.077.005 10.153-.007 3.201 0 6.402.004l3.09-.006 2.842.01 2.514.002L374 76l1 1c.125 3.5.125 3.5 0 7l-1 1c-2.84.283-5.682.449-8.531.621L363 86l-1 2h-2l.493 2.63c.476 3.163.628 6.09.62 9.284v3.456l-.015 3.685-.005 3.808q-.007 4.986-.024 9.972-.014 5.099-.02 10.196-.017 9.985-.049 19.969h-19l.016-5.52q.023-9.04.036-18.081.007-5.48.023-10.96.016-5.29.02-10.582.005-2.994.018-5.99v-3.7l.007-3.25c-.113-2.75-.496-5.24-1.12-7.917l-2.52.035-3.293.028-3.269.035C329 85 329 85 326 84q-.062-3.5 0-7z"/><path fill="#F0F1F3" d="m103.625 218.813 3.523-.04 3.329-.003 3.002-.013C116 219 116 219 119 221l-1 3c-3.5.797-6.714 1.119-10.3 1.098l-2.67-.008-3.343-.028L91 225l-2 22c2.984.995 5.2 1.196 8.324 1.316l3.115.127 3.249.12 3.283.13q4.014.16 8.029.307a88 88 0 0 1 1 5l-1 1a85 85 0 0 1-4.805.246l-2.957.1q-3.1.09-6.203.172l-2.965.103-2.726.076c-2.612.161-2.612.161-5.344 2.303-.403 2.265-.403 2.265-.25 4.813l.07 2.718c.125 2.545.125 2.545.805 5.281.375 2.188.375 2.188-.562 5L89 278h2v3l27 2v4c-5.072.837-9.978 1.135-15.121 1.098l-2.257-.005c-2.353-.005-4.706-.018-7.06-.03q-2.409-.008-4.818-.014Q82.871 288.032 77 288c-1.098-3.295-1.127-5.73-1.13-9.2l-.009-3.872.006-4.186-.003-4.284q-.001-4.487.006-8.973.006-5.763-.004-11.525a4204 4204 0 0 1 0-8.842q0-2.126-.002-4.251-.002-2.963.007-5.926l.002-3.411L76 221l1-1c8.75-1.365 17.797-1.134 26.625-1.187"/><path fill="#EFF0F2" d="M782 215c3.563-.187 3.563-.187 7 0l1 1c1.125 7.557 1.161 15.051 1.168 22.68l.01 3.908q.009 4.066.007 8.134c0 3.473.014 6.947.031 10.42.014 3.325.013 6.65.014 9.975l.022 3.778-.01 3.491.005 3.074C791 284 791 284 789 287c-7.2 2.095-15.012 1.419-22.25-.125-4.656-1.286-7.986-2.874-11.422-6.285-3.724-4.458-5.11-9.445-6.098-15.07-.287-3.139-.068-5.631.875-8.633 1.67-3.523 3.981-6.315 6.895-8.887 2.875-1.437 2.875-1.437 5-2v-2c1.31-.347 2.623-.676 3.938-1l2.214-.562c3.956-.608 7.854-.516 11.848-.438-.01-.747-.02-1.494-.032-2.263-.041-3.37-.067-6.741-.093-10.112l-.05-3.562-.02-3.399-.032-3.142L780 217zm-16.375 33.438c-2.452 2.393-3.308 3.546-4.5 6.625-1.484 5.338-1.523 10.443-1.125 15.937l.035 2.3c.251 2.424.55 3.701 1.965 5.7 4.613 2.81 9.45 4.89 14.887 5.125L779 284c1.533-3.066 1.121-6.271 1.098-9.633l-.005-2.278c-.005-2.405-.018-4.81-.03-7.214q-.008-2.443-.014-4.887-.017-5.994-.049-11.988c-2.89-1.445-5.483-1.327-8.68-1.266-2.57.183-2.57.183-5.695 1.703"/><path fill="#F0F1F3" d="M311 215h10l.076 4.023q.142 7.36.296 14.72.065 3.191.125 6.383.088 4.575.187 9.151l.05 2.901.06 2.67.048 2.361L322 259l1 1c2.53.073 5.033.092 7.563.063l2.154-.014q2.64-.02 5.283-.049l-.035-3.465q-.015-2.236-.027-4.473l-.026-2.287c-.009-1.925.036-3.85.088-5.775l1-1c3.5-.125 3.5-.125 7 0l1 1c.089 3.103.115 6.183.098 9.285l-.005 2.82c-.005 2.986-.018 5.972-.03 8.957q-.009 3.03-.014 6.057-.017 7.44-.049 14.881c-1.828 1.023-1.828 1.023-4 2-2.75-.375-2.75-.375-5-1q-.252-4.125-.5-8.25l-.145-2.355-.136-2.286-.127-2.094C337 270.012 337 268.005 337 266l-3.062.5c-3.7.47-7.214.576-10.938.5-1.723 4.463-2.222 8.102-2.125 12.875l.055 3.492L321 286c-2.25 1.063-2.25 1.063-5 2l-4-1zM935 242c4.342-.21 7.815-.046 12 1l3.625-.25c4.686-.08 8.09 1.727 12.176 3.863 2.776 1.75 4.586 3.44 6.367 6.192 2.81 5.705 3.433 10.762 3.219 17.101-.545 4.357-1.75 7.59-4.387 11.094-3.347 3.538-6.95 4.936-11.508 6.34-4.125 1.093-8.292 1.915-12.492 2.66l-.402 3.246-.535 4.192-.264 2.142A192 192 0 0 1 942 305l-1 1c-3.437.188-3.437.188-7 0l-2-2c-.247-2.295-.247-2.295-.243-5.197l-.01-3.287.023-3.567v-3.655q.006-3.834.024-7.669c.018-3.91.02-7.821.02-11.732q.007-3.723.018-7.444l.003-3.548.02-3.316.011-2.91c.134-2.68.433-5.084 1.134-7.675zm9 5c-1.607 4.91-2.209 8.803-1.977 14.027l.157 3.897.195 4.014q.087 2.048.172 4.095.21 4.984.453 9.967c2.518 1.047 4.734 1.96 7.438 2.375 2.814-.254 2.814-.254 5.875-2.25L959 281v-2l2-1c1.29-3.868 1.145-7.534 1.125-11.562l.012-2.366c.098-4.169.098-4.169-1.137-8.072h-2l1-3c-4.3-3.62-4.3-3.62-9.469-5.555A82 82 0 0 0 944 247"/><path fill="#EFF0F2" d="m416.125 241.813 3.695.019C423 242 423 242 426 243l2.375.313c3.369.882 5.106 2.3 7.625 4.687 1.875 2.375 1.875 2.375 3 5 .063 2.875.063 2.875-1 6a76 76 0 0 1-3.062 3.438c-2.22 2.471-2.918 3.482-3.75 6.812 1.059 4.89 3.422 8.236 6.28 12.297L439 284v3c-2 1-2 1-4.164.879l-2.461-.317-2.477-.308L428 287l-1-3-2-1v-3l-2-1c-.852-2.066-.852-2.066-1.625-4.562-.39-1.24-.39-1.24-.79-2.504L420 270h-2v-4l2.938-.812L424 264l1-3h2c.298-2.928.502-5.144 0-8-2.652-3.1-2.652-3.1-6-5l-7-1-1 40c-5 1-5 1-7.812.063L403 286c-.701-6.7-1.11-13.263-1-20h2l-1-3a63 63 0 0 1 .121-4.45l.147-2.568.17-2.67.158-2.705q.195-3.303.404-6.607c4.157-2 7.538-2.241 12.125-2.187"/><path fill="#EFEFF1" d="M1034 242c3.188.125 3.188.125 7 1 3.722 2.562 6.061 4.648 8.012 8.734q.861 1.998 1.676 4.016c1.023 2.486 2.1 4.843 3.312 7.25l3 1v-6h2l-1-14 5-1 1 1c.098 1.34.128 2.685.13 4.03l.009 2.588-.006 2.816.003 2.873q0 3.015-.006 6.03c-.005 3.084 0 6.167.007 9.25q0 2.924-.004 5.847l.006 2.809-.01 2.599-.002 2.292C1064 287 1064 287 1063 289c-2.187-.125-2.187-.125-5-1-2.579-2.637-4.625-4.738-5.687-8.312L1052 278l-2-1-1-3-2-2a185 185 0 0 1-2.937-5.375c-1.459-2.767-2.827-5.323-4.754-7.79L1038 257v-3h-3v34h-4v-2l-2-1v-38h2l.938-1.937C1033 243 1033 243 1034 242"/><path fill="#EFF0F2" d="m1133.875 243.188 2.316.095c5.456.32 9.811 1.482 14.809 3.717 2 2.25 2 2.25 3 5 .5 3.438.5 3.438 0 7-2.054 3.447-4.661 5.774-8 8 1.184 5.566 3.333 9.25 6.758 13.79 1.242 2.21 1.242 2.21 1.422 4.983L1154 288q-2.437-.212-4.875-.437l-2.742-.247C1144 287 1144 287 1142 286c-3.423-5.898-6.847-12.227-8-19 2-3 2-3 4.063-4.062.639-.31 1.278-.62 1.937-.938 1.327-2.653 1.267-5.098 1.203-8.023-.126-2.116-.126-2.116-1.203-4.477l-2-1.5c-2.755-.326-5.207-.183-8 0-1.408 2.817-1.094 5.146-1.062 8.293l.023 3.85.039 4.045q.039 3.927.063 7.855l.035 3.532c-.102 3.552-.473 6.928-1.098 10.425l-1 1q-3.5.062-7 0c-2.297-4.504-2.179-8.658-1.977-13.582l.076-2.467c.082-2.588.179-5.176.276-7.764q.088-2.64.172-5.279.211-6.455.453-12.908c5.342-1.943 9.295-2.18 14.875-1.812"/><path fill="#F0F1F3" d="M202.66 241.84c3.6 1.785 6.838 3.98 9.34 7.16v3h-4a181 181 0 0 1-4-4c-2.285-1.43-2.285-1.43-5-2-3.54-.078-3.54-.078-7 1-2.939 2.188-2.939 2.188-5 5-2.43 6.647-1.683 15.992-.504 22.91 1.093 3.697 2.234 5.799 4.879 8.652 2.513 1.562 2.513 1.562 5.188 1.875 2.508-.306 2.508-.306 4.687-1.75 2.001-1.668 2.001-1.668 2.75-4.687.228-2.8.38-5.6.523-8.406.477-2.594.477-2.594 1.766-4.5L208 265c2.107.432 2.107.432 4 1 .565 10.202 1.097 20.406 1.188 30.625l.039 2.13c.003 1.75-.104 3.5-.227 5.245l-2 3h-4v-2l-3-1v-16l-5 1c-4.61.424-8.367.197-12.812-1.187-3.38-1.922-4.98-3.657-7.188-6.813l-1.562-1.375c-2.348-2.654-3.673-5.203-4.438-8.625-.176-5.167.005-10.335 1.828-15.219 2.591-4.688 6.157-9.219 10.172-12.781 6.131-3.038 11.241-3.503 17.66-1.16"/><path fill="#EFF0F2" d="M136 241c2.773.193 4.53.765 7 2 1.026 1.65 2.023 3.32 3 5l1.688 2.188L149 252v2h2c1.46 2.647 2 3.894 2 7l2 1a78 78 0 0 1 2 5h2v-23l3-1 2 1q.037 9.13.055 18.262.008 3.108.02 6.216c.013 2.973.018 5.947.023 8.92l.015 2.82v2.608l.007 2.301C164 287 164 287 163 289c-2.187-.125-2.187-.125-5-1-4.34-4.441-6.21-8.431-8-14.25l-1-2.75-2-1c-2.442-3.33-4.04-6.021-5-10-1.458-1.625-1.458-1.625-3-3l-1-2c-2.18 2.742-2.18 2.742-2.195 5.448l.07 2.884c.015 1.046.03 2.092.047 3.17l.156 6.586c.146 9.933.146 9.933-2.078 14.912h-2v-2h-2v-38h2l-1-3c2.188-2.062 2.188-2.062 5-4"/><path fill="#F0F1F3" d="m273 241 2 1v2l1.813.813c3.03 1.645 4.746 3.54 6.687 6.386 2.433 4.036 4.674 7.91 6.25 12.363L291 267l2 1v-24l4-1 1 1c.185 2.643.309 5.263.387 7.91l.077 2.427q.078 2.553.149 5.107c.074 2.584.164 5.166.256 7.75q.073 2.482.143 4.966l.088 2.318c.12 5.19-.654 9.532-2.1 14.522-2.25-.187-2.25-.187-5-1-2.25-2.25-2.25-2.25-4-5a88 88 0 0 1-1-5l-2-1a402 402 0 0 1-3-6l-2-2a120 120 0 0 1-2.625-5l-1.352-2.687C275 259 275 259 275 257h-2v-2h-3l-1 32h-3v-2h-2v-35h2l-.687-2.312L265 245c1.125-1.75 1.125-1.75 3-3 2.563-.75 2.563-.75 5-1M487 241.125c2.89 1.264 4.727 2.659 7 4.875 2.529 3.802 3.894 7.018 4.387 11.594.579 5.313 2.395 10.143 4.176 15.156q.979 2.77 1.94 5.547l.87 2.448C506 283 506 283 506 287c-3.25.688-3.25.688-7 1-2.312-.937-2.312-.937-4-3-.917-2.663-1.453-5.222-2-8-5.784-2.012-10.902-2.22-17-2l-.586 2.082-.789 2.73-.773 2.708C473 285 473 285 471 288h-2c-1.125-6.625-1.125-6.625 0-10h2l-.625-1.562c-.54-3.51.543-6.08 1.625-9.438q.57-1.967 1.125-3.937L474 260h2v-7h2l-1-4h2l-1-3h3l-1-3c4.325-2.042 4.325-2.042 7-1.875M482 251a528 528 0 0 0-2.062 6.188l-1.16 3.48c-.772 3.307-.739 5.123.222 8.332 3.674 1.176 7.17 1.074 11 1l1-4h-2l-.367-2.012c-.858-4.522-1.673-8.787-3.633-12.988z"/><path fill="#EFF0F2" d="M373 241c3.077.25 4.963.978 7.625 2.563 5.187 5.323 6.497 14.1 8.438 21.125 1.805 6.692 1.805 6.692 4.113 13.218 1.195 3.037.95 5.87.824 9.094h-9c-3-6.5-3-6.5-3-11l-15-1c-1.871 3.12-3.596 6.075-5.187 9.313l-1.043 2.113L360 288h-3v-8h2l-1-3h2v-8h2l-1-3h2v-8h2l-1-3h2l-1-4h2l-1-3 2-1v-3h3v-2zm-2 10c-2.267 3.4-2.877 6.083-3.75 10.063l-.86 3.785L366 268l2 2c2.44.243 2.44.243 5.125.125l2.758-.055L378 270c-.538-5.69-1.14-11.349-2-17zM1089 241c3.233.882 5.624 1.697 8.25 3.813 1.904 2.38 2.895 4.264 3.75 7.187.125 2.813.125 2.813 0 5h2l.535 2.231 2.402 10.019.842 3.512 1.557 6.489c.408 1.692.842 3.378 1.315 5.053L1110 286l-1 1c-3.375.25-3.375.25-7 0-1.937-1.187-1.937-1.187-3-3-.187-2.687-.187-2.687 0-5h-2l-2-4h-16l-.75 4.875c-.422 2.742-.422 2.742-1.25 5.125-2.078 1.32-2.078 1.32-4 2a76 76 0 0 1-1-5l1-2h2l-1-4h2l-.625-2.25L1075 271q.996-2.001 2-4c.365-1.74.674-3.492.938-5.25.823-4.909 2.157-9.16 4.062-13.75h2l-1-3 2.438-1.437c2.41-1.332 2.41-1.332 3.562-2.563m-1 11c-2.679 2.679-3.979 4.943-5.312 8.5-.832 3.38-.832 3.38-.438 6.375L1083 269c2.405 1.203 3.95 1.1 6.625 1.063l2.477-.028L1094 270c.31-5.887-.33-12.659-3-18z"/><path fill="#F0F1F3" d="M627 243c3.5-.125 3.5-.125 7 0l1 1c.134 1.82.204 3.644.246 5.469l.1 3.422q.09 3.563.172 7.125c.197 6.594.685 12.622 2.482 18.984l1.688 2.125c2.455 1.092 2.455 1.092 5.875.813L649 281c1.823-1.957 1.823-1.957 3-4h2l-.494-2.608c-.49-3.287-.62-6.345-.604-9.665l.01-3.497.025-3.605.014-3.676q.018-4.475.049-8.949l5-2 1 1c.138 2.355.213 4.678.238 7.035l.025 2.158q.02 2.271.032 4.542c.017 2.294.061 4.587.105 6.88.132 12.335.132 12.335-2.236 17.248-2.063 2.991-3.846 5.455-6.906 7.422-4.156 1.316-8.031.44-12.223-.422-3.929-1.117-6.065-2.05-9.035-4.863-2.097-3.402-2.98-5.783-3.356-9.786q-.01-2.102.028-4.202l.006-2.254q.01-2.341.04-4.682c.032-2.399.042-4.796.048-7.195l.03-4.557.014-2.18c.025-1.716.102-3.43.19-5.144zM236.477 241.734l2.53-.007 2.618.023 2.64-.023 2.524.007 2.303.007L251 242l2 2v3l-3.465.184-4.472.254-2.288.119c-1.927.112-3.852.274-5.775.443l-1 1a110 110 0 0 0-.062 5.563L236 260l13 1 1 4c-4.278 2.852-7.896 2.602-13 3l-1 16 6.188-.625c3.68-.372 6.216-.574 9.738.602L254 285v2h-27v-2l-2-1 1-2h-2v-34h2l.75-1.875C228 244 228 244 229.798 242.884c2.395-.961 4.108-1.142 6.679-1.15M982 215h10l-1 4h2l-.09 1.99q-.457 10.292-.874 20.587-.16 3.836-.332 7.673a2247 2247 0 0 0-.462 11.059l-.164 3.438c-.24 6.464-.001 12.048 1.922 18.253 2.47 1.676 2.47 1.676 5 2v3q-3.187.039-6.375.063l-3.586.035C985 287 985 287 983 286c-1.347-4.04-1.393-7.9-1.59-12.137l-.13-2.803c-.458-11.298-.15-22.574.158-33.872l.158-6.506q.192-7.842.404-15.682"/><path fill="#EFF0F2" d="M672 215h9c.912 7.679 1.105 15.175 1.027 22.902l-.037 7.381q-.037 5.77-.086 11.541c-.03 3.735-.048 7.469-.064 11.203l-.04 3.504-.011 3.238-.023 2.85c.071 2.647.071 2.647 2.234 5.381 2.552 1.205 2.552 1.205 5 2v2c-2.27.081-4.541.14-6.812.188l-3.833.105C675 287 675 287 673.113 285.738c-1.688-2.636-2.077-5.065-2.242-8.175l-.004-2.778-.006-3.218.014-3.505.006-3.641c.075-16.479.607-32.951 1.119-49.421"/><path fill="#EFEFF0" d="M886.813 241.313c2.128.81 4.15 1.669 6.187 2.687v2l1.875.75C897 248 897 248 898.25 250.125L899 252c-1.687-.25-1.687-.25-4-1l-2.375-2c-2.503-2.135-2.503-2.135-5.5-2.937-4.084-.082-6.56.986-10.125 2.937-1.77 1.655-1.77 1.655-3 4-1.592 8.383-1.19 16.358.918 24.61.94 2.481.94 2.481 2.957 4.156 2.581 1.499 5.056 2.147 8.023 2.441 2.576-.254 3.927-1.046 6.04-2.52 1.936-1.539 2.95-2.462 4.062-4.687h3c-.125 2.188-.125 2.188-1 5-3.343 3.267-6.45 5.808-11 7-6.215.51-10.288-.552-16-3v-2h-3v-2l-2-1c-2.757-3.101-4.047-5.968-5-10-.157-3.674-.118-7.326 0-11h2l-1-3h2l-1-4h3l.688-1.687c1.676-2.955 3.858-4.981 6.312-7.313l2-2c4.465-1.914 7.282-2.193 11.813-.687"/><path fill="#EFF0F2" d="M851 243v2l-2.738.332-3.574.48-3.551.458c-3.065.53-3.065.53-5.117 1.992-1.187 1.735-1.187 1.735-1.211 4.039 1.3 2.944 2.287 3.807 4.789 5.742a297 297 0 0 0 4.465 3.144 707 707 0 0 1 4.472 3.168l2.012 1.396L852 267v2h2c1.238 3.715 1.282 7.137 1 11-.562 2.313-.562 2.313-2 4-6.269 3.194-11.77 4.226-18.707 4.168-3.315-.243-6.153-1.099-9.293-2.168v-2l1.871.07c6.008.128 11.331-.502 17.129-2.07.857-2.8.857-2.8 1-6-2.692-3.262-5.823-5.24-9.437-7.375-4.506-2.831-7.798-5.049-10.563-9.625-.5-3.562-.5-3.562 0-7 1.696-3.645 3.857-6.486 7-9 6.1-1.664 12.884-1.529 19 0"/><path fill="#F0F1F3" d="M710 242c6.4-.246 6.4-.246 9.438 1l1.562 1v3l-9 1 .016 2.089C712.2 278.17 712.2 278.17 711 286l-1 1c-2.67.141-5.324.042-8 0v-3h-2l.494-2.046c.592-3.457.618-6.715.604-10.224l-.005-2.063c-.005-2.16-.018-4.32-.03-6.48q-.008-2.204-.014-4.412A4023 4023 0 0 0 701 248l-8-1-1-3a125 125 0 0 1 18-1zM814 244c1.043 4.27 1.145 8.415 1.133 12.785l.003 2.237q0 2.331-.006 4.662c-.005 2.374 0 4.748.007 7.123q0 2.27-.004 4.54l.006 2.144c-.032 6.664-.032 6.664-1.139 9.509-2.982 1.491-5.716 1.12-9 1l-1-1c-.173-2.667-.284-5.31-.352-7.98l-.07-2.442q-.071-2.565-.136-5.132c-.066-2.605-.144-5.21-.223-7.815q-.068-2.493-.133-4.986l-.072-2.35c-.097-4.234.128-8.12.986-12.295 3.576-1.238 6.337-.75 10 0M1012.625 242.938l2.477.027L1017 243c1.235 4.71 1.036 9.2.879 14.02l-.072 2.601q-.116 4.095-.245 8.192l-.158 5.568q-.194 6.81-.404 13.619-2.47.039-4.937.063l-2.778.035L1007 287l-1-1a271 271 0 0 1-.098-9.285l.005-2.82c.005-2.986.018-5.972.03-8.957q.008-3.03.014-6.057.017-7.44.049-14.881c2.405-1.203 3.95-1.1 6.625-1.062M455.688 242.813 459 243c.78 5.512 1.148 10.84 1.133 16.402l.003 2.313q0 2.394-.006 4.787c-.005 2.453 0 4.906.007 7.36q0 2.333-.004 4.665l.006 2.229A147 147 0 0 1 460 286l-1 1c-1.812.133-1.812.133-4 .125l-2.187.008L451 287l-1-1c-.16-2.269-.252-4.543-.316-6.816l-.063-2.091q-.097-3.327-.183-6.656l-.131-4.408c-.117-4.01-.227-8.018-.307-12.029l-.049-2.191c-.075-5.576-.075-5.576 1.111-7.809 1.938-1 1.938-1 5.625-1.187M915.125 242.313 918 243c1.653 3.306 1.142 6.988 1.133 10.621l.003 2.593q0 2.717-.006 5.435c-.005 2.774 0 5.548.007 8.322q0 2.637-.004 5.275l.006 2.52c-.014 3.329-.079 6.053-1.139 9.234-6.152.098-6.152.098-8 0l-1-1c-.25-2.549-.43-5.07-.562-7.625l-.127-2.373c-.326-6.833-.418-13.662-.436-20.502l-.014-3.057.006-2.85.004-2.54C908 245 908 245 909 243c3-1 3-1 6.125-.687M741 244c.061 9.24-.11 18.454-.437 27.688l-.12 3.818-.127 3.63-.11 3.273C740 285 740 285 739 287c-1.812.688-1.812.688-4 1a81 81 0 0 1-4-1l-.076-2.28q-.175-5.077-.361-10.158l-.12-3.587-.127-3.409-.11-3.158L730 262l-1-1a153 153 0 0 1-.062-6.562l.027-3.63L729 248h2v-4c3.694-1.231 6.206-.644 10 0"/><path fill="#EEDDD5" d="m592 42 2.773 1.324c5.113 2.736 8.836 5.785 12.043 10.637 3.55 6.116 4.482 10.944 4.559 17.977-.073 6.04-.313 11.73-3.375 17.062-2.163 2.85-4.478 5.464-7 8l-3-3 2.25-2.125c3.039-3.177 5.941-6.406 7.332-10.652 1.24-6.594 1.391-13.313-.746-19.703-1.453-3.058-2.817-5.8-4.836-8.52a484 484 0 0 0-5-3v-3c-1.647-.714-3.322-1.362-5-2l-1.855-.766c-10.216-3.688-21.883-3.393-32.637-3.129L554 41l-2-2c29.912-2.044 29.912-2.044 40 3M220 75c4.432-.604 8.649-.54 12.813 1.125 3.547 3.04 6.344 5.914 8.196 10.223.987 2.866 1.878 5.747 2.741 8.652l1.004 3.262c1.097 3.575 2.17 7.156 3.246 10.738q.911 2.988 1.825 5.974 1.532 5.01 3.05 10.026l1.155 3.809c1.903 6.354 3.786 12.66 4.97 19.191l-1 2-4-1 2-1a1792 1792 0 0 0-6.398-22.89q-.954-3.347-1.9-6.698a1236 1236 0 0 0-3.5-12.074 520 520 0 0 1-1.371-4.772c-3.142-11.614-3.142-11.614-10.029-21.283-1.96-1.523-1.96-1.523-5.33-2.502l-3.41-.281-3.464-.344L218 77zM691.234 74.71C694 75 694 75 697.5 76.814L700 79l1.578 1.332c1.825 2.141 2.113 3.788 2.672 6.543 1.338 5.797 3.089 11.368 5 17a1459 1459 0 0 1 7.688 23.313l.928 2.88.849 2.662.754 2.357C720 137 720 137 720 139l-3-1a83 83 0 0 1-2.812-7.812l-.782-2.432c-1.613-5.065-3.12-10.16-4.611-15.263-2.219-7.554-4.523-15.077-7.17-22.493l-.738-2.266c-.796-2.136-1.567-3.873-2.887-5.734-3.254-2.416-6.536-3.774-10.531-4.39l-1.969.14-3.5.25-1-2c3.27-1.635 6.63-1.317 10.234-1.29M92 38h4c4.03 6.829 7.214 13.87 10.25 21.188l1.427 3.405A3269 3269 0 0 1 121 95h-3l-1.32-3.262c-3.225-7.921-6.565-15.741-10.211-23.48-1.635-3.627-3.09-7.301-4.531-11.008C99.258 50.387 96.084 44.126 92 38M753.957 75.59c2.512 1.734 3.595 3.798 5 6.464 1.044 1.949 2.187 3.776 3.402 5.622l1.192 1.818q1.22 1.85 2.445 3.695A170 170 0 0 1 769 98v2c-1.852-.742-1.852-.742-4-2-1.273-1.883-1.273-1.883-2.375-4.125C759.63 88.152 756.442 82.628 751 79c-3.433-.243-3.433-.243-7.187-.125l-3.856.055L737 79l1-3c5.375-2.568 10.428-2.092 15.957-.41"/><path fill="#EFEEEE" d="M809.563 224.563c2.437.437 2.437.437 4.375 2.062L815 229c-.812 3.25-.812 3.25-2 6-3.312.688-3.312.688-7 1l-1.937-1.125C803 233 803 233 802.563 230.5L803 228c2.117-2.274 3.503-2.915 6.563-3.437"/><path fill="#EEDDD5" d="M170 38c6.055-.195 6.055-.195 8 0l2 2c.175 2.725.231 5.347.195 8.07l-.008 2.413c-.011 2.548-.037 5.095-.062 7.642q-.016 2.587-.027 5.176Q180.063 69.65 180 76h-2l-1-35h-6z"/><path fill="#F0F1F3" d="M1009 224c2.313.125 2.313.125 5 1 2.375 2.313 2.375 2.313 4 5 0 2.188 0 2.188-1 4-1.812 1.313-1.812 1.313-4 2-2.062-.062-2.062-.062-4-1-1.875-2.25-1.875-2.25-3-5 .663-2.43 1.201-4.201 3-6M454.5 224.625c2.5.375 2.5.375 4.313 1.5C460 228 460 228 460.188 231.188L460 234c-1.687 1.063-1.687 1.063-4 2-2.625-.25-2.625-.25-5-1l-2-2c-.312-2.437-.312-2.437 0-5 1.637-2.499 2.536-2.93 5.5-3.375M737.125 225l2.875 1c1.5 2.313 1.5 2.313 2 5-.5 2.25-.5 2.25-2 4-2.875.938-2.875.938-6 1-2.375-1.125-2.375-1.125-4-3-.5-2.5-.5-2.5 0-5 2.344-2.704 3.535-3 7.125-3"/><path fill="#EEDDD5" d="M302 108c2.398.423 3.966.977 6 2.348 4.045 3.468 7.216 6.683 9.387 11.597 1.043 3.494.92 6.423.613 10.055l-1 3h-2l.105-1.687c.203-5.72-.49-10.195-3.105-15.313-2.726-4.136-5.848-6.358-10-9zm12 27 2 1c-1.555 3.817-4.036 6.192-7 9l-2-1v-2a349 349 0 0 1 5-4z"/><path fill="#EEDED7" d="m1032 264 1 3h2v21h-4v-2l-2-1 .469-2.016c.756-4.246.918-8.509 1.136-12.808.1-1.728.244-3.452.395-5.176z"/><path fill="#EEDDD5" d="M454 76q8.325-.112 16.65-.165 2.829-.022 5.657-.061a945 945 0 0 1 8.162-.067c.833-.015 1.667-.03 2.526-.047 5.66-.001 9.81 1.079 15.005 3.34v3l-2.25-.937c-3.657-1.413-6.866-2.18-10.784-2.268l-2.365-.06-2.523-.051-2.606-.063q-4.11-.097-8.222-.183l-5.582-.131A7274 7274 0 0 0 454 78zM290 74c7.728-.318 13.94-.323 21 3v7l-4-1v-2h2v-3h-27l2-2a90 90 0 0 1 6-1z"/><path fill="#F0F1F3" d="M911 225c3.063-.375 3.063-.375 6 0l2 2c.125 3.625.125 3.625 0 7-2.187 1.188-2.187 1.188-5 2-2.75-1.125-2.75-1.125-5-3-1-1.937-1-1.937-1-4 1.063-2.25 1.063-2.25 3-4"/><path fill="#EEDDD5" d="M547 219c1.727-.136 3.457-.232 5.188-.312l2.917-.176c2.895.488 2.895.488 5.457 2.34 3.32 4.286 5.214 8.838 7.25 13.835l1.233 2.917C572 244.68 572 244.68 572 247h-2l-1.137-2.71A1053 1053 0 0 0 564 233l-1.336-3.086-1.226-2.664-1.067-2.36c-1.289-2.079-1.289-2.079-3.785-3.117-3.17-.948-6.304-1.387-9.586-1.773zM498 118h2q3.188 5.874 6.375 11.75l1.828 3.367 1.758 3.242 1.619 2.984L513 142l1.182 2.18c1.055 2.347.96 4.279.818 6.82l-4-1 1-3c-.95-2.47-.95-2.47-2.457-5.113l-1.623-3.033-1.733-3.167a1734 1734 0 0 1-3.332-6.175l-1.51-2.767c-1.4-2.858-2.405-5.708-3.345-8.745"/><path fill="#E8DBD5" d="M487 241.125c2.89 1.264 4.727 2.659 7 4.875 1.635 2.55 3.084 5.105 4 8l-1 3-1.355-2.082-1.832-2.73-1.793-2.708c-2.123-2.607-4.058-3.94-7.02-5.48l.625 1.813L486 248l-2 3-1-3h-3v-5c4.325-2.042 4.325-2.042 7-1.875"/><path fill="#EEDDD5" d="M609 252h2v35l-3-1z"/><path fill="#C5CACD" d="M203.258 243.79c3.419 1.652 6.247 3.294 8.742 6.21v2h-4a181 181 0 0 1-4-4c-3.078-1.639-5.027-2-8.55-1.977l-3.762.352-3.801.336L185 247c1.561-1.795 2.653-2.88 4.922-3.668 4.552-.727 8.923-1.085 13.336.457"/><path fill="#EEDDD5" d="m604.625 218.875 2.977-.008L610 219l1 1c.073 2.863.092 5.7.063 8.563l-.014 2.443q-.02 2.997-.049 5.994h-2l-1-15h-12v-2c3.116-1.039 5.36-1.134 8.625-1.125"/><path fill="#C8CCCF" d="m891 243 2 1v2l1.875.75C897 248 897 248 898.25 250.125L899 252c-1.687-.25-1.687-.25-4-1l-2.375-2c-2.506-2.17-2.506-2.17-5.625-2.812-2.971-.33-2.971-.33-5.687.437L879 247c-1.812-1.437-1.812-1.437-3-3 5.544-1.963 9.207-2.08 15-1"/><path fill="#EEDFD8" d="M896 277h3c-.25 2.25-.25 2.25-1 5-1.75 2.25-1.75 2.25-4 4-2.625.875-2.625.875-5 1l-2-2 1.715-1.242 2.222-1.633 2.215-1.617c1.959-1.388 1.959-1.388 2.848-3.508m-8 10-1 2h-7l-1-2c5.625-1.125 5.625-1.125 9 0"/><path fill="#EEDDD5" d="M504 82c2.313.688 2.313.688 5 2 2.029 2.318 2.856 4.297 3.473 7.305.722 5.46.434 9.536-1.473 14.695l-2-1 .176-3.07c.52-7.296.52-7.296-1.29-14.192-1.494-1.735-1.494-1.735-3.886-3.738zM361 76q3.219-.04 6.438-.062l3.62-.036L374 76l1 1c.125 3.5.125 3.5 0 7l-1 1c-2.02.072-4.042.084-6.062.063l-3.348-.028L362 85v-2l10-1-1-3-10-2z"/><path fill="#F0F1F3" d="m874 280 6 3c2.33.361 4.663.697 7 1v2c-7.262 2.092-7.262 2.092-11 1.625l-2-.625 1-4h-2zm13 6 3 1h-3z"/><path fill="#C5CACD" d="M95 251h21v3q-3.562.04-7.125.063l-2.016.025c-4.066.02-7.871-.3-11.859-1.088z"/><path fill="#EEDDD5" d="m250 263-1 3c-2.396 1.198-4.272 1.28-6.937 1.5-2.955.244-5.232.556-8.063 1.5.188-1.875.188-1.875 1-4 4.483-2.893 9.87-2.18 15-2"/><path fill="#E5DBD7" d="M1089 241c3.298.9 5.714 1.78 8.438 3.875.515.701 1.03 1.403 1.562 2.125-.25 2.25-.25 2.25-1 4l-1.875-2.375c-2.024-2.593-2.024-2.593-4.125-4.625-2.02-.059-2.02-.059-4 1-1.771 2.48-1.771 2.48-3 5h3v3h-2v-2h-2l-1-6 2.438-1.437c2.41-1.332 2.41-1.332 3.562-2.563"/><path fill="#EEDDD6" d="M786 141h3c-.087 1.46-.195 2.918-.312 4.375l-.176 2.46L788 150l-3 2c-2.687.125-2.687.125-5 0l-1-5h6z"/><path fill="#EEDDD5" d="M373 241c3.245.263 4.967.978 7.688 2.813 2.192 2.074 3.342 3.364 4.312 6.187v4h-2l-.77-1.68-1.043-2.195-1.019-2.18c-1.163-2.25-1.163-2.25-4.168-3.945-2.625-.167-2.625-.167-5 0v-2zm0 4h2v2h-2zM1147 246c1.813.188 1.813.188 4 1 1.75 2.125 1.75 2.125 3 5 .313 3.688.313 3.688 0 7l-2 2-1-1c-.534-2.835-.965-5.68-1.402-8.531L1149 249l-2-1zM157 281l7 2-1 6c-1.673-.3-3.34-.636-5-1l-1-1c-.04-2-.043-4 0-6M433 76c2-.043 4-.04 6 0l1 1q.062 3.5 0 7c-2.312.688-2.312.688-5 1-1.812-1.437-1.812-1.437-3-3l4-1v-3zM454.5 224.625c2.5.375 2.5.375 4.313 1.5C460 228 460 228 460.188 231.188L460 234l-3 1 .063-2.875c.163-3.032.163-3.032-1.063-5.125-1.959.113-1.959.113-4 1-1.297 2.49-1.297 2.49-2 5h-1c-.187-2.312-.187-2.312 0-5 1.637-2.499 2.536-2.93 5.5-3.375M1009 224c2.313.125 2.313.125 5 1 2.313 2.563 2.313 2.563 4 5l-2 4-.687-2.437L1014 229c-2.453-.99-2.453-.99-5-1l-2 1q.456-2.01 1-4zM295 243l3 1v12h-2c-1.005-3.015-1.103-5.042-1.062-8.187l.027-2.731zM911 225c3.063-.375 3.063-.375 6 0l2 2c.125 3.625.125 3.625 0 7h-3l1-7c-2.934.267-2.934.267-6 1l-2 3-1-2c1.125-2 1.125-2 3-4M626 31q3.688-.04 7.375-.062l2.117-.026c5.281-.025 5.281-.025 7.508 1.088v2l-17-1z"/><path fill="#C8CDD0" d="M841 242c2.383.023 2.383.023 5.125.375l2.758.336L851 243v2c-3.674 1.176-7.17 1.074-11 1l-1-2z"/><path fill="#EEDDD5" d="M1102 261h2c1.263 5.075 2.27 9.728 2 15h-2q-.506-2.625-1-5.25l-.562-2.953C1102 265 1102 265 1102 261M161 244h3v11h-2c-1.203-2.405-1.1-3.95-1.062-6.625l.027-2.477zM673 215h8v10h-2v-8l-6-1zM768 282l8 2v4l-9-1 3-2-2-1zM1034 242c3.313.313 3.313.313 7 1 1.73 1.543 1.73 1.543 3 3l-1.828-.254-2.422-.309-2.39-.316c-2.365-.121-4.111.183-6.36.879zM1092 242c2.375.813 2.375.813 5 2l2 3c-.375 2.188-.375 2.188-1 4-2.4-2.88-4.473-5.564-6-9M590 100l2 2c-1.5 1.063-1.5 1.063-4 2-2.731-.12-5.294-.549-8-1v-1c1.622-.389 3.248-.76 4.875-1.125l2.742-.633zM1150 280h2l2 3c.125 2.688.125 2.688 0 5h-2l-2-3c-.125-2.687-.125-2.687 0-5"/><path fill="#C5CACD" d="m83 68 4 1v7l-4-1v-2h2v-3h-2z"/><path fill="#EEDDD5" d="M83 141h2c.125 6.75.125 6.75-1 9h-2zM888 287l-1 2h-7l-1-2c5.625-1.125 5.625-1.125 9 0M161 256h3v8h-2z"/></svg>